<mxfile host="Electron" modified="2024-03-14T17:49:57.707Z" agent="Mozilla/5.0 (Windows NT 10.0; Win64; x64) AppleWebKit/537.36 (KHTML, like Gecko) draw.io/24.0.4 Chrome/120.0.6099.109 Electron/28.1.0 Safari/537.36" etag="Z8B7KOxHTcKh_fjpJG-S" version="24.0.4" type="device">
  <diagram name="Page-1" id="3LjogEwv3swvAlOwHo1f">
    <mxGraphModel dx="1375" dy="1000" grid="1" gridSize="10" guides="1" tooltips="1" connect="1" arrows="1" fold="1" page="1" pageScale="1" pageWidth="850" pageHeight="1100" math="0" shadow="0">
      <root>
        <mxCell id="0" />
        <mxCell id="1" parent="0" />
        <mxCell id="9a9ImTmLyRNxZTIfZlab-1" value="Server 1&lt;div&gt;&lt;br&gt;&lt;/div&gt;" style="rounded=0;whiteSpace=wrap;html=1;" vertex="1" parent="1">
          <mxGeometry x="960" y="580" width="120" height="60" as="geometry" />
        </mxCell>
        <mxCell id="9a9ImTmLyRNxZTIfZlab-7" style="edgeStyle=none;curved=1;rounded=0;orthogonalLoop=1;jettySize=auto;html=1;exitX=0.5;exitY=1;exitDx=0;exitDy=0;entryX=0.5;entryY=0;entryDx=0;entryDy=0;fontSize=12;startSize=8;endSize=8;" edge="1" parent="1" source="9a9ImTmLyRNxZTIfZlab-3" target="9a9ImTmLyRNxZTIfZlab-1">
          <mxGeometry relative="1" as="geometry" />
        </mxCell>
        <mxCell id="9a9ImTmLyRNxZTIfZlab-8" style="edgeStyle=none;curved=1;rounded=0;orthogonalLoop=1;jettySize=auto;html=1;exitX=0.5;exitY=1;exitDx=0;exitDy=0;entryX=0.5;entryY=0;entryDx=0;entryDy=0;fontSize=12;startSize=8;endSize=8;" edge="1" parent="1" source="9a9ImTmLyRNxZTIfZlab-3" target="9a9ImTmLyRNxZTIfZlab-4">
          <mxGeometry relative="1" as="geometry" />
        </mxCell>
        <mxCell id="9a9ImTmLyRNxZTIfZlab-3" value="&lt;div&gt;LoadBalancer&lt;/div&gt;" style="rounded=0;whiteSpace=wrap;html=1;" vertex="1" parent="1">
          <mxGeometry x="1030" y="440" width="120" height="60" as="geometry" />
        </mxCell>
        <mxCell id="9a9ImTmLyRNxZTIfZlab-4" value="Server 2&lt;div&gt;&lt;br&gt;&lt;/div&gt;" style="rounded=0;whiteSpace=wrap;html=1;" vertex="1" parent="1">
          <mxGeometry x="1115" y="580" width="120" height="60" as="geometry" />
        </mxCell>
        <mxCell id="9a9ImTmLyRNxZTIfZlab-9" value="" style="rounded=0;whiteSpace=wrap;html=1;" vertex="1" parent="1">
          <mxGeometry x="930" y="240" width="120" height="60" as="geometry" />
        </mxCell>
        <mxCell id="9a9ImTmLyRNxZTIfZlab-10" value="" style="rounded=0;whiteSpace=wrap;html=1;" vertex="1" parent="1">
          <mxGeometry x="940" y="250" width="120" height="60" as="geometry" />
        </mxCell>
        <mxCell id="9a9ImTmLyRNxZTIfZlab-11" value="" style="rounded=0;whiteSpace=wrap;html=1;" vertex="1" parent="1">
          <mxGeometry x="950" y="260" width="120" height="60" as="geometry" />
        </mxCell>
        <mxCell id="9a9ImTmLyRNxZTIfZlab-12" value="" style="rounded=0;whiteSpace=wrap;html=1;" vertex="1" parent="1">
          <mxGeometry x="960" y="270" width="120" height="60" as="geometry" />
        </mxCell>
        <mxCell id="9a9ImTmLyRNxZTIfZlab-13" value="" style="rounded=0;whiteSpace=wrap;html=1;" vertex="1" parent="1">
          <mxGeometry x="970" y="280" width="120" height="60" as="geometry" />
        </mxCell>
        <mxCell id="9a9ImTmLyRNxZTIfZlab-15" style="edgeStyle=none;curved=1;rounded=0;orthogonalLoop=1;jettySize=auto;html=1;exitX=0.5;exitY=1;exitDx=0;exitDy=0;entryX=0.5;entryY=0;entryDx=0;entryDy=0;fontSize=12;startSize=8;endSize=8;" edge="1" parent="1" source="9a9ImTmLyRNxZTIfZlab-2" target="9a9ImTmLyRNxZTIfZlab-3">
          <mxGeometry relative="1" as="geometry" />
        </mxCell>
        <mxCell id="9a9ImTmLyRNxZTIfZlab-2" value="Client 1" style="rounded=0;whiteSpace=wrap;html=1;" vertex="1" parent="1">
          <mxGeometry x="980" y="290" width="120" height="60" as="geometry" />
        </mxCell>
        <mxCell id="9a9ImTmLyRNxZTIfZlab-17" value="" style="curved=1;endArrow=classic;html=1;rounded=0;fontSize=12;startSize=8;endSize=8;entryX=0;entryY=0.5;entryDx=0;entryDy=0;exitX=0.5;exitY=1;exitDx=0;exitDy=0;dashed=1;strokeWidth=4;fillColor=#60a917;strokeColor=#2D7600;" edge="1" parent="1" source="9a9ImTmLyRNxZTIfZlab-2" target="9a9ImTmLyRNxZTIfZlab-1">
          <mxGeometry width="50" height="50" relative="1" as="geometry">
            <mxPoint x="930" y="470" as="sourcePoint" />
            <mxPoint x="980" y="420" as="targetPoint" />
            <Array as="points">
              <mxPoint x="950" y="380" />
              <mxPoint x="900" y="420" />
              <mxPoint x="890" y="560" />
            </Array>
          </mxGeometry>
        </mxCell>
        <mxCell id="9a9ImTmLyRNxZTIfZlab-18" value="" style="rounded=0;whiteSpace=wrap;html=1;" vertex="1" parent="1">
          <mxGeometry x="1150" y="240" width="120" height="60" as="geometry" />
        </mxCell>
        <mxCell id="9a9ImTmLyRNxZTIfZlab-19" value="" style="rounded=0;whiteSpace=wrap;html=1;" vertex="1" parent="1">
          <mxGeometry x="1160" y="250" width="120" height="60" as="geometry" />
        </mxCell>
        <mxCell id="9a9ImTmLyRNxZTIfZlab-20" value="" style="rounded=0;whiteSpace=wrap;html=1;" vertex="1" parent="1">
          <mxGeometry x="1170" y="260" width="120" height="60" as="geometry" />
        </mxCell>
        <mxCell id="9a9ImTmLyRNxZTIfZlab-21" value="" style="rounded=0;whiteSpace=wrap;html=1;" vertex="1" parent="1">
          <mxGeometry x="1180" y="270" width="120" height="60" as="geometry" />
        </mxCell>
        <mxCell id="9a9ImTmLyRNxZTIfZlab-22" value="" style="rounded=0;whiteSpace=wrap;html=1;" vertex="1" parent="1">
          <mxGeometry x="1190" y="280" width="120" height="60" as="geometry" />
        </mxCell>
        <mxCell id="9a9ImTmLyRNxZTIfZlab-23" value="Client ..." style="rounded=0;whiteSpace=wrap;html=1;" vertex="1" parent="1">
          <mxGeometry x="1200" y="290" width="120" height="60" as="geometry" />
        </mxCell>
        <mxCell id="9a9ImTmLyRNxZTIfZlab-24" style="edgeStyle=none;curved=1;rounded=0;orthogonalLoop=1;jettySize=auto;html=1;exitX=0.5;exitY=1;exitDx=0;exitDy=0;entryX=0.606;entryY=0;entryDx=0;entryDy=0;entryPerimeter=0;fontSize=12;startSize=8;endSize=8;" edge="1" parent="1" source="9a9ImTmLyRNxZTIfZlab-23" target="9a9ImTmLyRNxZTIfZlab-3">
          <mxGeometry relative="1" as="geometry" />
        </mxCell>
        <mxCell id="9a9ImTmLyRNxZTIfZlab-25" value="" style="curved=1;endArrow=classic;html=1;rounded=0;fontSize=12;startSize=8;endSize=8;exitX=0.5;exitY=1;exitDx=0;exitDy=0;entryX=1;entryY=0.5;entryDx=0;entryDy=0;strokeWidth=4;dashed=1;fillColor=#60a917;strokeColor=#2D7600;" edge="1" parent="1" source="9a9ImTmLyRNxZTIfZlab-23" target="9a9ImTmLyRNxZTIfZlab-4">
          <mxGeometry width="50" height="50" relative="1" as="geometry">
            <mxPoint x="1270" y="430" as="sourcePoint" />
            <mxPoint x="1320" y="380" as="targetPoint" />
            <Array as="points">
              <mxPoint x="1330" y="420" />
              <mxPoint x="1330" y="550" />
            </Array>
          </mxGeometry>
        </mxCell>
        <mxCell id="9a9ImTmLyRNxZTIfZlab-26" value="" style="rounded=0;whiteSpace=wrap;html=1;" vertex="1" parent="1">
          <mxGeometry x="310" y="235" width="120" height="60" as="geometry" />
        </mxCell>
        <mxCell id="9a9ImTmLyRNxZTIfZlab-27" value="" style="rounded=0;whiteSpace=wrap;html=1;" vertex="1" parent="1">
          <mxGeometry x="320" y="245" width="120" height="60" as="geometry" />
        </mxCell>
        <mxCell id="9a9ImTmLyRNxZTIfZlab-28" value="" style="rounded=0;whiteSpace=wrap;html=1;" vertex="1" parent="1">
          <mxGeometry x="330" y="255" width="120" height="60" as="geometry" />
        </mxCell>
        <mxCell id="9a9ImTmLyRNxZTIfZlab-29" value="" style="rounded=0;whiteSpace=wrap;html=1;" vertex="1" parent="1">
          <mxGeometry x="340" y="265" width="120" height="60" as="geometry" />
        </mxCell>
        <mxCell id="9a9ImTmLyRNxZTIfZlab-30" value="" style="rounded=0;whiteSpace=wrap;html=1;" vertex="1" parent="1">
          <mxGeometry x="350" y="275" width="120" height="60" as="geometry" />
        </mxCell>
        <mxCell id="9a9ImTmLyRNxZTIfZlab-33" style="edgeStyle=none;curved=1;rounded=0;orthogonalLoop=1;jettySize=auto;html=1;exitX=0.5;exitY=1;exitDx=0;exitDy=0;fontSize=12;startSize=8;endSize=8;strokeWidth=3;dashed=1;" edge="1" parent="1" source="9a9ImTmLyRNxZTIfZlab-31" target="9a9ImTmLyRNxZTIfZlab-32">
          <mxGeometry relative="1" as="geometry" />
        </mxCell>
        <mxCell id="9a9ImTmLyRNxZTIfZlab-31" value="Client 1" style="rounded=0;whiteSpace=wrap;html=1;" vertex="1" parent="1">
          <mxGeometry x="360" y="285" width="120" height="60" as="geometry" />
        </mxCell>
        <mxCell id="9a9ImTmLyRNxZTIfZlab-32" value="Server 1&lt;div&gt;&lt;br&gt;&lt;/div&gt;" style="rounded=0;whiteSpace=wrap;html=1;" vertex="1" parent="1">
          <mxGeometry x="360" y="530" width="120" height="60" as="geometry" />
        </mxCell>
        <mxCell id="9a9ImTmLyRNxZTIfZlab-34" value="Network Topology 1" style="text;html=1;align=center;verticalAlign=middle;resizable=0;points=[];autosize=1;strokeColor=none;fillColor=none;fontSize=16;" vertex="1" parent="1">
          <mxGeometry x="340" y="160" width="160" height="30" as="geometry" />
        </mxCell>
        <mxCell id="9a9ImTmLyRNxZTIfZlab-35" value="Network Topology 2" style="text;html=1;align=center;verticalAlign=middle;resizable=0;points=[];autosize=1;strokeColor=none;fillColor=none;fontSize=16;" vertex="1" parent="1">
          <mxGeometry x="1030" y="160" width="160" height="30" as="geometry" />
        </mxCell>
      </root>
    </mxGraphModel>
  </diagram>
</mxfile>
